<?xml version="1.0" encoding="utf-8"?>
<!-- Generator: Adobe Illustrator 28.1.0, SVG Export Plug-In . SVG Version: 6.00 Build 0)  -->
<svg version="1.1" id="Laag_1" xmlns="http://www.w3.org/2000/svg" xmlns:xlink="http://www.w3.org/1999/xlink" x="0px" y="0px"
	 viewBox="0 0 536 253" style="enable-background:new 0 0 536 253;" xml:space="preserve">
<style type="text/css">
	.st0{fill-rule:evenodd;clip-rule:evenodd;fill:#112A5D;}
	.st1{fill-rule:evenodd;clip-rule:evenodd;fill:#D17421;}
</style>
<path class="st0" d="M330.11,52.61l0.61,0.33l-0.15,3.68c25.97,7.19,57.6,27.43,54.24,58.45c-3.21,28.43-36.97,47.58-62.94,50v5.77
	c21.54-1.09,49.5-7.27,68.75-16.81c17.72-8.78,39.72-23.75,39.88-45.82c0.15-22.24-20.01-38.38-38.19-47.49
	c-9.32-4.68-21.39-8.86-31.47-11.2c-5.81-1.34-12.22-2.59-18.03-3.34c-3.21-0.42-6.87-0.92-9.93-1.17
	C329.35,44.67,330.72,49.6,330.11,52.61L330.11,52.61z"/>
<path class="st0" d="M287.03,176.78h-0.61v-1.92c-22.31-2.26-39.11-5.69-58.67-17.22c-15.13-8.95-31.17-24.67-32.85-43.06
	c-1.83-20.32,11.46-37.38,28.11-47.66c14.51-8.95,38.5-18.23,55.46-20.57l-0.31-3.85c-23.07,1-51.18,10.62-71.04,22.24
	c-17.72,10.37-43.54,29.6-40.03,53.1c3.36,23.16,24.6,39.3,44.15,49.33c23.53,12.04,49.96,17.48,76.39,17.31L287.03,176.78
	L287.03,176.78z"/>
<path class="st0" d="M286.42,170.1v-4.52c-16.65-1.76-34.07-6.35-48.58-14.8c-12.99-7.61-26.28-21.32-26.43-37.29
	c0-18.56,7.64-30.44,22-41.56c14.06-10.87,28.57-14.55,45.53-18.14v-1.17l-0.31-4.85c-30.4,4.35-82.35,27.01-78.22,64.8
	c1.99,18.73,15.28,31.77,30.71,40.97C245.32,161.98,270.07,169.51,286.42,170.1L286.42,170.1z"/>
<path class="st0" d="M320.49,180.38l-0.31,3.6c12.38,0.33,28.11-3.18,40.18-5.77c10.69-2.34,23.68-7.53,33.46-12.63
	c9.32-5.02,19.25-11.79,26.12-19.9c9.47-11.12,12.07-19.57,12.07-34.12c-1.07,1.67-2.6,12.38-5.04,17.31
	c-2.9,5.6-5.35,8.53-9.47,13.21c-6.42,7.61-17.57,13.96-26.12,18.9C371.67,172.19,342.79,177.96,320.49,180.38L320.49,180.38z"/>
<polygon class="st1" points="291.46,229.38 291.61,229.38 316.82,229.38 317.12,229.38 317.12,206.55 317.12,206.3 291.46,206.3 
	291.46,229.38 "/>
<polygon class="st1" points="286.42,165.58 286.42,170.1 286.42,174.86 286.42,176.78 287.03,176.78 321.4,176.78 321.56,176.78 
	321.86,170.85 321.86,165.08 321.71,164.58 321.71,160.73 321.4,160.73 286.11,160.73 286.42,160.98 286.42,165.58 "/>
<polygon class="st1" points="281.07,97.18 281.37,97.18 327.67,97.18 327.97,97.18 327.97,85.89 327.97,85.64 281.07,85.64 
	281.07,97.18 "/>
<polygon class="st1" points="283.06,129.54 283.21,129.54 325.22,129.54 325.53,129.54 325.53,118.5 325.53,118.34 283.06,118.34 
	283.06,129.54 "/>
<polygon class="st1" points="276.33,26.19 276.49,26.19 334.69,26.19 334.85,26.19 334.85,19.25 334.85,19 334.24,19 276.03,19 
	276.33,19 276.33,26.19 "/>
<polygon class="st1" points="278.93,53.78 278.93,60.22 278.93,60.47 330.11,60.47 330.26,60.47 330.26,57.13 330.57,56.63 
	330.72,52.95 330.11,52.61 278.93,52.61 278.93,53.78 "/>
<path class="st0" d="M83.53,209.73c1.53,1.17,3.67,1.25,3.67,3.76v12.04c0,2.26-1.37,2.84-3.51,2.84v1.17h11v-1.17h-0.76
	c-3.51,0-2.75-3.6-2.75-6.27c0-3.09,0-6.19,0-9.28c1.83-1.25,3.36-2.68,5.65-2.68h0.46c2.6,0,3.36,1.51,3.36,3.85v11.29
	c0,2.59-1.07,3.09-3.51,3.09v1.17h11v-1.17h-0.76c-3.51,0-2.75-3.6-2.75-6.27c0-3.09,0-6.19,0-9.28c1.53-1.51,3.51-2.68,5.96-2.68
	h0.15h1.38c1.53,1.34,1.99,1.76,1.99,4.1v10.79c0,2.76-0.76,3.34-3.51,3.34v1.17h11v-1.17c-9.17,0,2.44-21.32-9.17-21.32
	c-3.06,0-5.65,2.09-7.94,4.26c-1.22-1.59-1.53-4.26-4.74-4.26h-1.37c-3.06,0-5.19,2.68-7.18,4.1l-0.15-4.26L83.53,209.73
	L83.53,209.73z"/>
<path class="st0" d="M237.07,209.73c1.53,1.17,3.67,1.34,3.67,3.76v11.79c0,2.59-1.22,3.09-3.67,3.09v1.17h11.15v-1.17
	c-4.28-0.08-3.67-2.51-3.67-6.02c0-3.18,0-6.35,0-9.53c2.14-1.42,3.36-2.68,6.11-2.68c2.75,0,3.51,1.42,3.51,4.1v10.79
	c0,2.68-0.92,3.34-3.51,3.34v1.17h11v-1.17c-4.28-0.08-3.67-2.51-3.67-6.02c0-3.18,0-6.35,0-9.53c1.53-1.34,3.51-2.68,5.81-2.68
	h0.46h1.22c1.68,1.25,2.14,1.84,2.14,4.1v10.79c0,2.68-0.92,3.34-3.51,3.34v1.17h11v-1.17c-5.35,0-3.67-6.94-3.67-11.54
	c0-4.18,0-9.78-5.5-9.78h-0.15c-3.82,0-5.35,2.59-7.94,4.26c-0.61-2.17-2.44-4.26-4.89-4.26h-1.22c-3.06,0-5.04,2.68-7.18,4.1v-4.26
	L237.07,209.73L237.07,209.73z"/>
<path class="st0" d="M339.12,213.83c7.03-1.09,14.21,7.53,8.86,12.79c-2.29,2.42-7.03,2.42-8.71-0.5
	C338.67,225.12,338.82,215.42,339.12,213.83L339.12,213.83z M338.97,200.28c3.97,0,9.32-0.25,9.32,4.85v0.92
	c0,5.35-4.58,6.52-9.01,6.52h-0.31V200.28L338.97,200.28z M331.33,200.28h1.38h0.46c1.53,0.42,1.68,2.01,1.68,3.43v21.07
	c0,2.93-0.61,3.6-3.51,3.6v1.17c7.03,0,22,2.34,22-7.86v-0.25c0-6.86-4.28-6.27-7.33-8.7c1.83-1.59,3.82-1.59,5.5-4.68
	c1.38-2.43,1.38-5.69-0.92-7.53c-3.36-2.68-14.51-1.67-19.25-1.67V200.28L331.33,200.28z"/>
<path class="st0" d="M27,214.5c0,5.27,1.99,11.37,7.03,14.05c5.81,3.09,11.61,1.84,17.72,0.33c0-4.52-1.68-11.79,3.51-11.79v-1.17
	h-11v1.17l2.6,0.33c1.99,2.01,1.22,7.69,1.22,10.7l-4.12,0.25c-10.85,0.92-14.67-11.04-11.92-19.73
	c4.13-13.88,18.03-10.28,18.03-3.26h1.68l-0.61-5.94v-0.33l-7.79-1.17v0.25h-1.07C32.04,198.19,27,204.38,27,214.5L27,214.5z"/>
<path class="st0" d="M403.14,199.95c1.68,1.59,3.51,0.92,3.51,4.18v21.15c0,2.59-1.07,3.09-3.51,3.09v1.17h11v-1.17
	c-5.19,0-3.51-6.61-3.51-11.04l10.69,12.21h5.81c0-1.76,0.15-0.75-1.38-1.67c-0.76-0.42-1.38-0.92-1.99-1.5
	c-1.07-1.09-2.14-2.34-3.21-3.43c-1.22-1.25-5.35-5.77-6.11-7.02c1.68-1.17,3.51-2.84,5.19-4.18c0.92-0.75,1.68-1.34,2.75-2.01
	c1.83-1.17,2.6-0.33,2.6-2.17h-7.94v1.09l1.99,0.33c-0.15,1.42-7.03,7.53-8.4,7.86v-19.65L403.14,199.95L403.14,199.95z"/>
<path class="st0" d="M131.5,211.15l-0.15-4.26l-7.33,2.84c1.07,1.34,3.67,0.67,3.67,3.76v12.04c0,2.26-1.53,2.84-3.67,2.84v1.17h11
	v-1.17c-4.12-0.08-3.51-2.51-3.51-6.02c0-3.26,0-6.52,0-9.78c3.21-2.17,10.69-5.27,10.69,1.67v11.04c0,2.59-1.07,3.09-3.51,3.09
	v1.17h11v-1.17l-0.15,0.33l-3.21-1.34v-0.25c-0.31-4.01,0.31-15.39-1.68-17.98C139.9,202.79,133.64,210.57,131.5,211.15
	L131.5,211.15z"/>
<path class="st0" d="M208.65,209.65c1.99,1.84,3.21,0.59,3.51,4.1c0.31,2.34,0.31,4.68,0.31,7.19c0,4.18,0.31,9.11,5.65,9.11h1.22
	c4.12,0,5.04-2.34,7.64-4.1l0.15,4.26l7.64-1.84v-1.17v-0.25c-5.5,0-3.82-2.76-3.82-7.94c0-4.01,0-7.94-0.15-12.12l-7.33,3.01
	l3.51,2.26v12.12c-2.29,1.59-3.51,2.93-6.72,2.93h-0.15c-4.28,0-4.12-4.52-4.12-7.94c0-4.1,0-8.11,0-12.38L208.65,209.65
	L208.65,209.65z"/>
<path class="st0" d="M157.17,224.03c0-3.43,5.96-5.6,8.4-5.69v1.42v2.17C165.57,228.54,157.17,230.13,157.17,224.03L157.17,224.03z
	 M153.5,214.25l4.43-1.42c0-2.59,0.31-4.1,3.36-4.1h0.15c5.04,0,4.12,4.43,4.12,8.11c-3.21,0.84-8.4,2.09-10.85,4.52
	c-3.36,3.26-1.53,8.7,3.36,8.7h0.46c4.74,0,5.96-3.68,7.49-4.1c0,2.01,1.22,4.1,3.36,4.1h1.53c0.92,0,1.99-0.42,2.75-1v-1.17h-2.75
	c-5.5-5.35,3.82-20.82-7.49-20.82h-1.22C158.08,207.05,153.5,209.65,153.5,214.25L153.5,214.25z"/>
<path class="st0" d="M68.71,228.88c-1.53,3.51-2.9,6.19-7.33,6.19l-0.31,0.08l-2.44-0.33l-1.83,3.43
	c10.08,2.43,11.46-5.1,15.13-12.29c1.53-3.09,2.9-6.44,4.58-9.53c0.76-1.67,1.37-3.43,2.29-4.93c0.31-0.59,0.92-1.76,1.38-2.09
	c1.53-1.25,1.83,0.25,1.83-1.84h-7.03v1l2.14,0.67c0,2.59-4.58,12.79-6.42,15.13l-6.88-14.8l0.31-0.33l2.29-0.5v-1.17h-9.17
	c0,2.17,0.61,0.5,1.99,2.01c0.46,0.5,1.22,1.92,1.53,2.59c0.92,1.84,1.83,3.68,2.6,5.52C64.74,220.52,67.18,226.37,68.71,228.88
	L68.71,228.88z"/>
<path class="st0" d="M361.58,216.59c0.46-9.62,10.69-11.54,10.85-2.84V215c-1.22,1.42-1.99,1.67-4.12,1.67h-5.35L361.58,216.59
	L361.58,216.59z M368.46,230.05c2.44,0,6.72-0.59,8.4-2.42v-1.67c-1.68,0.17-3.97,1.67-6.72,1.67h-0.61c-5.35,0-7.94-4.6-7.94-9.53
	v-0.25h15.13c0-11.87-11.31-14.55-17.26-6.61C354.1,218.43,358.22,230.05,368.46,230.05L368.46,230.05z"/>
<path class="st0" d="M485.33,216.59c-0.15-3.51,2.14-8.36,6.11-8.36c3.97,0,8.4,8.45-0.15,8.45h-4.58L485.33,216.59L485.33,216.59z
	 M492.06,230.05c2.14,0,6.88-0.67,8.4-2.42v-1.67c-2.14,0.5-3.67,1.67-6.11,1.67h-0.92c-5.5,0-8.1-4.35-8.1-9.53v-0.25h14.51h0.31
	c0-12.29-11.31-14.3-16.96-6.61C477.85,218.51,481.97,230.05,492.06,230.05L492.06,230.05z"/>
<path class="st0" d="M384.65,216.59c-0.15-3.26,2.29-8.36,6.26-8.36c3.06,0,4.58,2.76,4.58,5.52c0,2.59-1.83,2.93-4.12,2.93h-5.35
	L384.65,216.59L384.65,216.59z M391.53,230.05c2.44,0,6.72-0.59,8.4-2.42v-1.67c-1.83,0.17-3.51,1.67-6.72,1.67h-0.61
	c-5.35,0-7.94-4.6-7.94-9.53v-0.25h14.67h0.15c0-4.52-0.61-8.95-5.5-10.54c-4.43-1.42-8.86,0.59-11.46,4.1
	C377.17,218.51,381.44,230.05,391.53,230.05L391.53,230.05z"/>
<path class="st0" d="M178.25,223.11h-1.68l0.46,5.77c2.75,0.59,2.9,1.17,6.11,1.17h0.92c3.36,0,7.64-1.34,8.1-5.27
	c0.61-4.6-2.6-5.85-5.81-7.86c-2.14-1.42-7.64-3.76-5.04-7.36c1.99-2.76,7.79-1.59,7.79,3.26h1.68v-4.6c-2.29-1-3.82-1.17-6.26-1.17
	h-0.15c-3.97,0-8.4,2.26-7.18,6.77c0.92,3.34,4.74,5.18,7.49,6.69C196.74,227.21,178.25,233.98,178.25,223.11L178.25,223.11z"/>
<path class="st0" d="M439.19,229.97l1.68,0.08c0.61-2.76,3.67-8.78,4.89-11.79c0.92-2.01,1.83-3.93,2.6-5.85
	c0.31-0.84,0.92-1.84,1.38-2.68c1.37-1.84,2.14,0.17,2.14-2.17h-7.49c0,2.34,0.76,0.42,2.44,1.92c0.15,1.76-4.89,14.05-6.11,15.3
	l-7.18-15.22l0.31-0.25l2.44-0.59v-1.17h-9.17c0,2.26,0.76,0.33,2.14,2.17c0.46,0.75,1.07,2.01,1.53,2.84
	c0.92,1.92,1.83,3.85,2.75,5.85C434.92,221.19,437.67,227.79,439.19,229.97L439.19,229.97z"/>
<path class="st0" d="M453.1,199.86c0.31,1.92,3.51-0.42,3.51,5.77l0.15,18.4l-0.46,3.09l0.15,0.33l-3.51,1.17l-0.15-0.25v1.17h11.15
	v-1.17c-3.67,0-3.67-1.76-3.67-5.02c0-2.93,0-5.77,0-8.61c0-5.85,0-11.71,0-17.56L453.1,199.86L453.1,199.86z"/>
<path class="st0" d="M502.9,209.06l3.51,0.17h0.15c0,6.02-2.14,20.82,5.35,20.82h1.38c1.83,0,3.21-0.5,4.58-1.17v-1.92
	c-10.24,5.18-7.64-11.04-7.64-17.73v-0.25h7.18v-1.42h-7.18v-5.6L502.9,209.06L502.9,209.06z"/>
<path class="st0" d="M195.51,209.73l3.67,2.68v1.09v11.54c0,2.76-0.92,3.34-3.67,3.34v1.17h11.15v-1.17c-5.04,0-3.67-4.43-3.67-8.86
	c0-4.18,0-8.36,0-12.54L195.51,209.73L195.51,209.73z"/>
<path class="st0" d="M467,209.81c1.38,1.25,3.67,1.17,3.67,3.43v12.71c0,2.17-1.83,2.42-3.67,2.42v1.17h11v-1.17
	c-4.89,0-3.51-4.77-3.51-8.86c0-4.18,0-8.36,0-12.54L467,209.81L467,209.81z"/>
<path class="st0" d="M469.44,201.54v0.25c0,1.51,0.76,2.34,2.29,2.34h0.31c1.53,0,2.44-0.84,2.44-2.34v-0.5v-0.5
	c-0.31-1-1.22-1.92-2.44-1.92C470.51,198.86,469.44,199.86,469.44,201.54L469.44,201.54z"/>
<path class="st0" d="M197.81,201.54c0,1.51,1.07,2.59,2.6,2.59h0.15h0.61c1.22-0.33,1.83-1.25,1.83-2.59c0-1.34-0.92-2.68-2.44-2.68
	C199.18,198.86,197.81,199.86,197.81,201.54L197.81,201.54z"/>
</svg>
